<svg data-name="Your Icons" viewBox="0 0 48 48" xmlns="http://www.w3.org/2000/svg"><path d="M13 33a3 3 0 0 0 3-3v-8a3 3 0 0 0-2.94-3A9 9 0 0 1 22 11h4a9 9 0 0 1 8.94 8A3 3 0 0 0 32 22v8a3 3 0 0 0 2.82 3A3 3 0 0 1 32 35h-4.18a3 3 0 1 0 0 2H32a5 5 0 0 0 4.94-4.39A5 5 0 0 0 40 28v-4a5 5 0 0 0-3-4.59A11 11 0 0 0 26 9h-4a11 11 0 0 0-11 10.41A5 5 0 0 0 8 24v4a5 5 0 0 0 5 5Zm12 4a1 1 0 1 1 1-1 1 1 0 0 1-1 1Zm13-13v4a3 3 0 0 1-3 3 1 1 0 0 1-1-1v-8a1 1 0 0 1 1-1 3 3 0 0 1 3 3Zm-28 0a3 3 0 0 1 3-3 1 1 0 0 1 1 1v8a1 1 0 0 1-1 1 3 3 0 0 1-3-3Z" fill="#f45905" class="fill-000000"></path></svg>