<svg viewBox="0 0 256 256" xmlns="http://www.w3.org/2000/svg"><path fill="none" d="M0 0h256v256H0z"></path><path d="M240.7 121.8 216 134.1l-32-61.2 25-12.5a7.9 7.9 0 0 1 10.6 3.4l24.6 47.1a8 8 0 0 1-3.5 10.9ZM40 133.1l-24.7-12.4a7.9 7.9 0 0 1-3.5-10.8l24.6-47.1A8 8 0 0 1 47 59.3l25 12.5ZM216 134.1l-16 18.8-36.8 36.8a8.5 8.5 0 0 1-7.6 2.1l-58-14.5a8 8 0 0 1-2.9-1.5L40 133.1" fill="none" stroke="#f45905" stroke-linecap="round" stroke-linejoin="round" stroke-width="8" class="stroke-000000"></path><path d="m200 152.9-44-32-12.8 9.6a32.1 32.1 0 0 1-38.4 0l-5.4-4.1a8.1 8.1 0 0 1-.9-12.1l39.2-39.1a7.9 7.9 0 0 1 5.6-2.3H184" fill="none" stroke="#f45905" stroke-linecap="round" stroke-linejoin="round" stroke-width="8" class="stroke-000000"></path><path d="m72.6 71.8 51.3-15a8 8 0 0 1 5.5.4L164 72.9M112 212.9l-30.1-7.6a7.4 7.4 0 0 1-3.3-1.7L56 184" fill="none" stroke="#f45905" stroke-linecap="round" stroke-linejoin="round" stroke-width="8" class="stroke-000000"></path></svg>