<svg width="467" height="465" viewBox="0 0 467 465" fill="none" xmlns="http://www.w3.org/2000/svg">
<mask id="mask0" mask-type="alpha" maskUnits="userSpaceOnUse" x="0" y="0" width="467" height="465">
<path d="M0 0H467V465H0V0Z" fill="#4A3AFF"/>
</mask>
<g mask="url(#mask0)">
<ellipse cx="185.612" cy="371.538" rx="92.4622" ry="92.3251" transform="rotate(90 185.612 371.538)" fill="white" fill-opacity="0.1"/>
<ellipse cx="373.162" cy="184.099" rx="92.9772" ry="92.8393" transform="rotate(90 373.162 184.099)" fill="white" fill-opacity="0.1"/>
<path opacity="0.1" d="M93.2861 -1.85565C93.2861 10.3543 95.6875 22.4447 100.353 33.7252C105.019 45.0057 111.857 55.2555 120.478 63.8892C129.099 72.5229 139.334 79.3716 150.597 84.0441C161.861 88.7167 173.934 91.1216 186.125 91.1216C198.317 91.1216 210.39 88.7166 221.654 84.0441C232.917 79.3716 243.152 72.5229 251.773 63.8892C260.394 55.2554 267.232 45.0057 271.898 33.7252C276.563 22.4446 278.965 10.3543 278.965 -1.85568L186.125 -1.85565L93.2861 -1.85565Z" fill="white"/>
<path opacity="0.1" d="M0.000404591 277.24C12.2398 277.24 24.3594 274.825 35.6672 270.135C46.9749 265.444 57.2494 258.568 65.904 249.901C74.5586 241.234 81.4238 230.944 86.1076 219.619C90.7914 208.295 93.2021 196.157 93.2021 183.9C93.2021 171.642 90.7914 159.504 86.1076 148.18C81.4237 136.855 74.5585 126.566 65.904 117.898C57.2494 109.231 46.9749 102.355 35.6671 97.6645C24.3594 92.9737 12.2398 90.5594 0.000362671 90.5594L0.000396443 183.9L0.000404591 277.24Z" fill="white"/>
<rect opacity="0.2" x="279.633" y="90.6177" width="186.618" height="186.343" transform="rotate(90 279.633 90.6177)" fill="white"/>
<path d="M465.974 277.237L366.701 373.936L279.633 463.855L279.633 277.237L465.974 277.237Z" fill="white" fill-opacity="0.15"/>
<path d="M279.633 90.6177L378.905 -6.08123L465.974 -96.0002L465.974 90.6177L279.633 90.6177Z" fill="white" fill-opacity="0.15"/>
</g>
</svg>
