<svg width="40" height="40" viewBox="0 0 40 40" fill="none" xmlns="http://www.w3.org/2000/svg">
<path d="M16.9492 19.725C17.6567 21.1859 18.838 22.3642 20.3008 23.0679C20.4087 23.119 20.528 23.1411 20.6471 23.1321C20.7661 23.1231 20.8807 23.0832 20.9797 23.0164L23.1281 21.5812C23.223 21.5168 23.3327 21.4776 23.4469 21.467C23.5612 21.4565 23.6762 21.4751 23.7812 21.5211L27.8031 23.2484C27.9406 23.3056 28.0554 23.4064 28.13 23.5353C28.2045 23.6642 28.2346 23.814 28.2156 23.9617C28.0882 24.9566 27.6025 25.871 26.8496 26.5338C26.0967 27.1965 25.1281 27.5622 24.125 27.5625C21.0253 27.5625 18.0525 26.3311 15.8607 24.1393C13.6689 21.9474 12.4375 18.9747 12.4375 15.875C12.4377 14.8719 12.8034 13.9033 13.4662 13.1504C14.129 12.3974 15.0433 11.9118 16.0383 11.7843C16.186 11.7654 16.3358 11.7955 16.4647 11.87C16.5935 11.9445 16.6944 12.0594 16.7516 12.1968L18.4789 16.2273C18.5238 16.3307 18.5426 16.4436 18.5336 16.556C18.5246 16.6684 18.4881 16.7769 18.4273 16.8718L16.9922 19.0547C16.9283 19.1534 16.8908 19.2668 16.8833 19.3842C16.8757 19.5016 16.8985 19.6189 16.9492 19.725Z" stroke="#ffffff" stroke-linecap="round" stroke-linejoin="round"/>
</svg>
